<svg xmlns="http://www.w3.org/2000/svg" width="44" height="44" viewBox="0 0 44 44">
  <path id="icons8-instagram_1_" data-name="icons8-instagram (1)" d="M16,3A13.016,13.016,0,0,0,3,16V34A13.016,13.016,0,0,0,16,47H34A13.016,13.016,0,0,0,47,34V16A13.016,13.016,0,0,0,34,3Zm0,2H34A10.985,10.985,0,0,1,45,16V34A10.985,10.985,0,0,1,34,45H16A10.985,10.985,0,0,1,5,34V16A10.986,10.986,0,0,1,16,5Zm21,6a2,2,0,1,0,2,2A2,2,0,0,0,37,11ZM25,14A11,11,0,1,0,36,25,11.015,11.015,0,0,0,25,14Zm0,2a9,9,0,1,1-9,9A8.985,8.985,0,0,1,25,16Z" transform="translate(-3 -3)" fill="#fff"/>
</svg>
