<svg xmlns="http://www.w3.org/2000/svg" width="42" height="42" viewBox="0 0 42 42">
  <path id="icons8-linkedin" d="M9,4A5.015,5.015,0,0,0,4,9V41a5.015,5.015,0,0,0,5,5H41a5.015,5.015,0,0,0,5-5V9a5.015,5.015,0,0,0-5-5ZM9,6H41a2.985,2.985,0,0,1,3,3V41a2.985,2.985,0,0,1-3,3H9a2.985,2.985,0,0,1-3-3V9A2.985,2.985,0,0,1,9,6Zm5,5.012a4.319,4.319,0,0,0-2.811.941,3.3,3.3,0,0,0-1.178,2.514,3.689,3.689,0,0,0,3.68,3.467l0,0a.988.988,0,0,0,.3.053,3.743,3.743,0,0,0,3.988-3.521q0-.026,0-.053A3.787,3.787,0,0,0,14,11.012Zm0,1.977c1.392,0,1.942.622,2,1.5-.012.856-.542,1.519-2,1.519-1.385,0-2.012-.709-2.012-1.545a1.226,1.226,0,0,1,.473-1A2.362,2.362,0,0,1,14,12.988ZM11,19a1,1,0,0,0-1,1V39a1,1,0,0,0,1,1h6a1,1,0,0,0,1-1V20a1,1,0,0,0-1-1Zm9,0a1,1,0,0,0-1,1V39a1,1,0,0,0,1,1h6a1,1,0,0,0,1-1V29a3.83,3.83,0,0,1,.625-2.2,2,2,0,0,1,1.857-.848,2.164,2.164,0,0,1,1.9.885A3.7,3.7,0,0,1,32,29V39a1,1,0,0,0,1,1h6a1,1,0,0,0,1-1V28.262a9.774,9.774,0,0,0-2.381-6.894A7.871,7.871,0,0,0,31.813,19,8.73,8.73,0,0,0,27,20.424V20a1,1,0,0,0-1-1Zm-8,2h4V38H12Zm9,0h4v1.56a1,1,0,0,0,1.8.6A6.282,6.282,0,0,1,31.813,21a5.8,5.8,0,0,1,4.355,1.742A7.739,7.739,0,0,1,38,28.262V38H34V29a5.571,5.571,0,0,0-1.01-3.354,4.352,4.352,0,0,0-3.473-1.689,4.2,4.2,0,0,0-3.5,1.662A5.663,5.663,0,0,0,25,29v9H21Z" transform="translate(-4 -4)" fill="#fff"/>
</svg>
