<svg xmlns="http://www.w3.org/2000/svg" width="46" height="46" viewBox="0 0 46 46">
  <path id="icons8-github" d="M25,2A23,23,0,1,0,48,25,23.018,23.018,0,0,0,25,2Zm0,2A20.988,20.988,0,0,1,46,25c0,.071-.005.142-.006.213-.64-.059-1.379-.115-2.318-.148-1.329-.047-3-.034-4.9.06a10.678,10.678,0,0,0,.121-1.5,8.557,8.557,0,0,0-1.555-5.172,14.278,14.278,0,0,0,.609-3.172,4.857,4.857,0,0,0-1.166-4.014L36.494,11H36.1a8.856,8.856,0,0,0-5.643,2.014A15.024,15.024,0,0,0,25,12a15.819,15.819,0,0,0-5.553,1.018A8.857,8.857,0,0,0,13.8,11h-.393l-.289.268A4.782,4.782,0,0,0,11.988,15.2a15.185,15.185,0,0,0,.576,3.248A9.491,9.491,0,0,0,10.9,23.6a10.676,10.676,0,0,0,.117,1.5c-1.806-.084-3.416-.1-4.693-.055-.94.033-1.679.089-2.318.148,0-.065-.006-.13-.006-.2A20.988,20.988,0,0,1,25,4ZM14.4,13.131a7.728,7.728,0,0,1,4.238,1.717l.469.414.578-.236A13.821,13.821,0,0,1,25,14a12.991,12.991,0,0,1,5.2,1.016l.586.258.479-.426a7.736,7.736,0,0,1,4.242-1.717,3.392,3.392,0,0,1,.445,2.035,14.219,14.219,0,0,1-.605,3.135l-.15.482.3.408A6.643,6.643,0,0,1,36.9,23.545l0,.027V23.6a7.118,7.118,0,0,1-2.812,5.973C32.174,31.052,29.153,32,24.9,32s-7.276-.948-9.189-2.428A7.116,7.116,0,0,1,12.9,23.6a7.652,7.652,0,0,1,1.506-4.408l.293-.4-.141-.475a15.015,15.015,0,0,1-.572-3.217A3.479,3.479,0,0,1,14.4,13.131ZM8.885,26.021c.707.009,1.517.047,2.328.088a9.475,9.475,0,0,0,.273.918,45.645,45.645,0,0,0-7.307.688c-.064-.5-.116-1-.145-1.516A44.849,44.849,0,0,1,8.885,26.021Zm32.23.016a44.959,44.959,0,0,1,4.848.178c-.029.5-.079,1-.143,1.494a46.265,46.265,0,0,0-7.514-.676c.105-.293.193-.595.27-.9C39.471,26.085,40.345,26.047,41.115,26.037Zm-29.2,1.982a9.028,9.028,0,0,0,2.576,3.135,13.66,13.66,0,0,0,5.988,2.469,7.879,7.879,0,0,0-.869,1.07l-.061-.053a4,4,0,0,1-1.248.313c-.751.067-1.677.047-2.5.047-1.225,0-1.765-.579-2.627-1.633a7.1,7.1,0,0,0-1.625-1.561,4.054,4.054,0,0,0-1.684-.793L9.783,31H9.7a1.556,1.556,0,0,0-1.34.516A1.277,1.277,0,0,0,8.1,32.58a1.261,1.261,0,0,0,.547.752c1.367.911,1.608,2.715,2.465,4.318A4.634,4.634,0,0,0,15.4,40H18v4.8A21,21,0,0,1,4.332,28.7,45.011,45.011,0,0,1,11.912,28.02Zm25.971.008a45.694,45.694,0,0,1,7.787.67A21,21,0,0,1,32,44.8V39.6a9.371,9.371,0,0,0-1.426-4.789,7.521,7.521,0,0,0-.959-1.236,13.451,13.451,0,0,0,5.7-2.42A9,9,0,0,0,37.883,28.027ZM23.7,34.1h2.8a3.142,3.142,0,0,1,2.375,1.766A7.745,7.745,0,0,1,30,39.6v5.8a21.079,21.079,0,0,1-10,0V39.6a7.42,7.42,0,0,1,1.209-3.711A3.4,3.4,0,0,1,23.7,34.1ZM12.309,35.281A4.709,4.709,0,0,0,15.8,37c.779,0,1.752.028,2.676-.055l.01,0A8.92,8.92,0,0,0,18.2,38H15.4a2.581,2.581,0,0,1-2.506-1.248l-.008-.014-.006-.012A14.042,14.042,0,0,1,12.309,35.281Z" transform="translate(-2 -2)" fill="#fff"/>
</svg>
